<?xml version="1.0" standalone="no"?>
<!DOCTYPE svg PUBLIC "-//W3C//DTD SVG 20010904//EN"
 "http://www.w3.org/TR/2001/REC-SVG-20010904/DTD/svg10.dtd">
<svg version="1.0" xmlns="http://www.w3.org/2000/svg"
 width="519.000000pt" height="519.000000pt" viewBox="0 0 519.000000 519.000000"
 preserveAspectRatio="xMidYMid meet">
<metadata>
Created by potrace 1.14, written by Peter Selinger 2001-2017
</metadata>
<g transform="translate(0.000000,519.000000) scale(0.100000,-0.100000)"
fill="#000000" stroke="none">
<path d="M1680 5186 c-3 -2 -34 -7 -70 -10 -36 -3 -74 -8 -85 -10 -11 -2 -51
-7 -90 -11 -38 -4 -78 -9 -89 -11 -10 -2 -44 -6 -75 -9 -31 -3 -72 -8 -91 -10
-62 -9 -104 -14 -155 -20 -75 -8 -262 -32 -315 -40 -14 -2 -50 -6 -80 -10 -58
-7 -81 -10 -145 -19 -22 -3 -60 -8 -85 -11 -25 -3 -61 -8 -80 -10 -19 -3 -57
-8 -85 -11 -27 -4 -57 -8 -65 -10 -8 -1 -18 -3 -22 -3 -4 -1 -7 -337 -6 -748
1 -412 -2 -937 -6 -1168 -5 -231 -9 -627 -11 -880 -1 -253 -3 -532 -4 -620 -5
-476 -1 -786 11 -789 13 -4 343 -74 388 -82 14 -3 131 -28 260 -55 129 -28
321 -68 425 -90 105 -22 199 -42 210 -45 11 -2 34 -7 50 -10 17 -3 35 -7 40
-8 6 -2 28 -6 50 -10 22 -4 54 -12 70 -16 17 -5 44 -11 60 -14 17 -3 41 -7 55
-10 53 -12 76 -16 99 -21 14 -2 126 -27 250 -54 434 -96 590 -130 613 -135 13
-3 66 -14 118 -25 84 -19 301 -65 355 -76 22 -4 209 -44 240 -51 11 -2 31 -6
45 -9 14 -2 70 -14 125 -25 132 -28 135 -29 170 -36 17 -3 37 -7 46 -10 13 -3
15 6 16 56 l0 59 115 118 c64 65 148 152 188 193 113 118 600 619 652 671 114
115 120 124 123 186 2 32 6 114 10 183 3 69 8 152 10 185 2 33 7 132 10 220 8
227 14 390 20 540 3 72 8 177 10 235 9 230 15 369 20 455 3 50 7 137 10 195 8
169 17 325 30 515 11 155 15 224 20 305 7 140 16 319 20 430 2 58 6 183 10
278 l7 172 -108 1 c-238 3 -494 13 -614 24 -19 2 -84 6 -145 10 -60 3 -130 8
-155 10 -25 2 -90 7 -145 10 -55 4 -120 8 -145 10 -25 2 -92 7 -150 10 -58 3
-132 8 -165 10 -33 2 -112 6 -175 10 -63 3 -144 8 -180 10 -65 4 -171 11 -330
20 -47 2 -125 7 -175 10 -49 3 -128 7 -175 10 -47 3 -123 8 -170 10 -47 2
-116 7 -155 10 -201 16 -400 26 -405 21z"/>
</g>
</svg>
